<?xml version="1.0" standalone="no"?>
<!DOCTYPE svg PUBLIC "-//W3C//DTD SVG 20010904//EN"
 "http://www.w3.org/TR/2001/REC-SVG-20010904/DTD/svg10.dtd">
<svg version="1.0" xmlns="http://www.w3.org/2000/svg"
 width="162.000000pt" height="162.000000pt" viewBox="0 0 162.000000 162.000000"
 preserveAspectRatio="xMidYMid meet">
<metadata>
Created by potrace 1.11, written by Peter Selinger 2001-2013
</metadata>
<g transform="translate(0.000000,162.000000) scale(0.100000,-0.100000)"
fill="#000000" stroke="none">
<path d="M793 1361 c-32 -32 -59 -88 -68 -143 l-6 -38 -209 0 c-180 0 -210 2
-210 15 0 11 -12 15 -49 15 -28 0 -53 -5 -57 -11 -8 -14 -4 -674 5 -744 l6
-50 48 -3 c35 -2 49 1 53 12 5 14 43 16 294 16 l288 0 6 -23 c3 -12 6 -55 6
-95 0 -71 -1 -73 -32 -92 -18 -11 -48 -20 -66 -20 l-33 0 20 26 c26 33 26 45
0 78 -16 20 -29 26 -59 26 -78 0 -105 -73 -49 -134 81 -90 243 -60 280 52 10
31 9 59 -7 150 l-6 32 236 0 236 0 0 30 0 31 -229 -3 -229 -3 33 31 c19 17 37
43 40 57 l7 27 189 0 189 0 0 25 0 25 -190 0 -190 0 0 24 c0 14 -14 40 -34 60
l-33 36 223 0 224 0 0 25 0 25 -280 0 c-216 0 -281 3 -284 13 -2 6 -8 27 -14
46 -10 31 -9 35 13 53 23 18 42 19 295 18 l270 -1 0 31 0 30 -255 0 -255 0 20
37 c11 21 20 48 20 60 l0 23 235 0 235 0 0 25 0 25 -234 0 -233 0 -5 48 c-8
75 -70 162 -118 162 -5 0 -21 -13 -37 -29z m91 -107 c3 -9 6 -29 6 -45 0 -28
-2 -29 -45 -29 -25 0 -45 3 -45 8 0 4 11 24 25 45 27 39 49 47 59 21z m-143
-171 c7 -27 15 -54 17 -60 3 -10 -46 -13 -221 -13 l-224 0 -7 31 c-3 17 -6 44
-6 60 l0 29 214 0 214 0 13 -47z m122 16 c-10 -16 -28 -40 -40 -51 l-23 -21 0
29 c0 16 -3 39 -6 52 -6 20 -3 22 40 22 l47 0 -18 -31z m-204 -208 l-64 -69
-142 -1 -143 -1 0 65 0 65 203 3 c111 1 204 3 206 5 2 1 -25 -29 -60 -67z
m141 -57 c0 -9 -11 -14 -32 -14 l-33 1 24 19 c24 21 41 19 41 -6z m-240 -90
c-6 -14 -10 -41 -10 -60 l0 -34 -120 0 -120 0 0 60 0 60 130 0 130 0 -10 -26z
m186 -3 c-15 -15 -30 -41 -35 -57 -5 -19 -15 -30 -29 -32 -27 -4 -29 15 -6 75
16 41 19 43 57 43 l41 0 -28 -29z m191 -66 l28 -24 -36 -1 c-31 0 -37 4 -41
25 -7 32 12 33 49 0z m-95 -8 c4 -20 1 -23 -24 -19 -23 4 -26 7 -17 23 13 26
36 24 41 -4z m-264 -106 c13 -22 34 -48 47 -58 25 -18 22 -18 -145 -15 l-170
3 0 54 0 55 123 0 123 0 22 -39z m147 13 c14 -21 68 -54 90 -54 13 0 3 28 -15
45 -29 26 -25 35 19 35 35 0 39 -3 45 -31 11 -57 10 -59 -41 -59 -60 1 -93 16
-128 58 -25 29 -25 32 -7 32 11 0 27 -12 37 -26z m238 7 c-4 -17 -43 -62 -43
-50 0 2 -4 19 -9 37 -9 32 -9 32 24 32 28 0 32 -3 28 -19z"/>
</g>
</svg>
